<svg version="1.1" width="247" height="73" viewBox="-1 -1 247 73" xmlns="http://www.w3.org/2000/svg" xmlns:xlink="http://www.w3.org/1999/xlink">
  <!-- Exported by Scratch - http://scratch.mit.edu/ -->
  <path id="ID0.42374552180990577" fill="none" stroke="#000000" stroke-width="7" stroke-linecap="round" d="M 342 168 C 342 168 338.750 166.050 337 166 C 332.300 165.750 327.650 166.750 323 167 C 320.650 167.100 318.300 166.650 316 167 C 313.600 167.300 311.350 168.450 309 169 C 306.650 169.450 304.300 169.800 302 170 C 299.650 170.150 297.300 169.750 295 170 C 289.650 170.450 284.350 171.550 279 172 C 276.300 172.200 273.650 172 271 172 C 268.300 172 265.650 171.850 263 172 C 259.650 172.150 253 173 252 175 C 252 175 244.650 176 241 176 C 238.600 176 236.350 175 234 175 C 228.950 175 224 176 219 176 C 216.600 176 214.300 174.800 212 175 C 209.550 175.150 207.350 176.450 205 177 C 202.650 177.450 200.350 178 198 178 C 193.300 178 188.650 177 184 177 C 180.650 177 174 178 174 178 C 176 175 171.493 178.003 169 179 C 166.450 180.020 163.524 179.918 161 181 C 158.793 181.946 157.114 183.862 155 185 C 152.767 186.202 150.438 187.303 148 188 C 145.736 188.647 143.302 188.507 141 189 C 138.630 189.508 136.370 190.492 134 191 C 131.698 191.493 129.349 191.832 127 192 C 124.675 192.166 122.323 192.194 120 192 C 118.308 191.859 115 191 115 191 " transform="matrix(1, 0, 0, 1, -99, -129)"/>
  <path id="ID0.7909627165645361" fill="#FFFFFF" stroke="#000000" stroke-width="2" d="M 241.500 128 C 250.466 128 258.591 131.586 264.475 137.379 C 270.358 143.171 274 151.171 274 160 C 274 168.829 270.358 176.829 264.475 182.621 C 258.591 188.414 250.466 192 241.500 192 C 232.534 192 224.409 188.414 218.525 182.621 C 212.642 176.829 209 168.829 209 160 C 209 151.171 212.642 143.171 218.525 137.379 C 224.409 131.586 232.534 128 241.500 128 Z " transform="matrix(1, 0, 0, 1, -55, -121)"/>
  <path id="ID0.08517513517290354" fill="none" stroke="#000000" stroke-width="7" stroke-linecap="round" d="M 241 181 C 241 181 246.450 181.980 249 183 C 251.493 183.997 253.532 185.942 256 187 C 258.228 187.955 260.669 188.334 263 189 C 265.331 189.666 267.600 190.657 270 191 C 272.308 191.330 274.674 190.845 277 191 C 279.679 191.179 282.318 191.883 285 192 C 289.990 192.217 295.017 191.656 300 192 C 304.698 192.324 309.300 193.697 314 194 C 319.649 194.364 331 194 331 194 " transform="matrix(1, 0, 0, 1, -99, -129)"/>
  <path id="ID0.4373931000009179" fill="none" stroke="#000000" stroke-width="7" stroke-linecap="round" d="M 171 175 C 171 175 165.693 173.539 163 173 C 160.691 172.538 158.302 172.493 156 172 C 153.630 171.492 151.342 170.625 149 170 C 146.347 169.292 144.154 168.480 141 168 C 128.382 166.080 103 163 103 163 " transform="matrix(1, 0, 0, 1, -99, -129)"/>
  <path id="ID0.9830129612237215" fill="#FF0000" stroke="#FF0000" stroke-width="7" stroke-linecap="round" d="M 247 172 C 242.060 168.418 237.171 163.466 232 159 C 229.746 157.053 226.917 155.603 224 155 C 217.121 153.577 209.906 154.285 203 153 C 195.535 151.611 188.344 148.933 181 147 C 175.689 145.602 170.254 144.599 165 143 C 162.574 142.262 160.355 140.942 158 140 C 155.358 138.943 152.790 137.558 150 137 C 147.714 136.543 145.326 137.155 143 137 C 140.321 136.821 137.594 136.692 135 136 C 132.550 135.347 129.278 131.977 128 133 C 126.778 133.977 129.185 137.717 130 140 C 130.853 142.388 131.798 144.767 133 147 C 134.138 149.114 135.668 151.002 137 153 C 138.332 154.998 139.058 157.588 141 159 C 142.961 160.426 145.582 160.827 148 161 C 150.349 161.168 152.645 160 155 160 C 157.685 160 160.336 160.667 163 161 C 165.664 161.333 168.320 161.833 171 162 C 173.659 162.166 176.375 161.544 179 162 C 184.093 162.886 188.947 164.908 194 166 C 201.278 167.574 208.624 168.983 216 170 C 218.309 170.319 220.721 169.512 223 170 C 230.111 171.524 236.835 174.754 244 176 C 245.791 176.312 246.985 175.396 246 174 Z " transform="matrix(1, 0, 0, 1, -99, -129)"/>
</svg>